<svg width="32" height="32" xmlns="http://www.w3.org/2000/svg">
 <g><title>background</title><rect fill="none" id="canvas_background" height="34" width="34" y="-1" x="-1"/></g>
 <g>
  <title>Layer 1</title>
  <path id="svg_1" fill="none" d="m0,0l24,0l0,24l-24,0l0,-24z"/>
  <path fill="#e5e5e5" id="svg_2" d="m20.5,6.825001c-1.74,0 -3.41,0.81 -4.5,2.09c-1.09,-1.28 -2.76,-2.09 -4.5,-2.09c-3.08,0 -5.5,2.42 -5.5,5.5c0,3.78 3.4,6.86 8.55,11.54l1.45,1.31l1.45,-1.32c5.15,-4.67 8.55,-7.75 8.55,-11.53c0,-3.08 -2.42,-5.5 -5.5,-5.5zm-4.4,15.55l-0.1,0.1l-0.1,-0.1c-4.76,-4.31 -7.9,-7.16 -7.9,-10.05c0,-2 1.5,-3.5 3.5,-3.5c1.54,0 3.04,0.99 3.57,2.36l1.87,0c0.52,-1.37 2.02,-2.36 3.56,-2.36c2,0 3.5,1.5 3.5,3.5c0,2.89 -3.14,5.74 -7.9,10.05z"/>
  <rect rx="7" id="svg_3" height="31" width="31" y="0.5" x="0.499999" stroke="#f8f8f8" fill="none"/>
 </g>
</svg>